<mxfile host="Electron" agent="Mozilla/5.0 (Macintosh; Intel Mac OS X 10_15_7) AppleWebKit/537.36 (KHTML, like Gecko) draw.io/24.7.17 Chrome/128.0.6613.36 Electron/32.0.1 Safari/537.36" version="24.7.17">
  <diagram id="kgpKYQtTHZ0yAKxKKP6v" name="Page-1">
    <mxGraphModel dx="2441" dy="836" grid="1" gridSize="10" guides="1" tooltips="1" connect="1" arrows="1" fold="1" page="1" pageScale="1" pageWidth="1100" pageHeight="850" math="0" shadow="0">
      <root>
        <mxCell id="0" />
        <mxCell id="1" parent="0" />
        <mxCell id="soAuHpVcPObN9e2wOpiU-68" style="edgeStyle=orthogonalEdgeStyle;rounded=0;orthogonalLoop=1;jettySize=auto;html=1;exitX=1;exitY=0.5;exitDx=0;exitDy=0;entryX=0;entryY=0.5;entryDx=0;entryDy=0;fillColor=#1ba1e2;strokeColor=#006EAF;" edge="1" parent="1" source="3nuBFxr9cyL0pnOWT2aG-6" target="soAuHpVcPObN9e2wOpiU-8">
          <mxGeometry relative="1" as="geometry" />
        </mxCell>
        <mxCell id="3nuBFxr9cyL0pnOWT2aG-6" value="Start" style="rounded=1;whiteSpace=wrap;html=1;arcSize=50;fillColor=#cdeb8b;strokeColor=#36393d;" parent="1" vertex="1">
          <mxGeometry x="-1034" y="150" width="90" height="40" as="geometry" />
        </mxCell>
        <mxCell id="3nuBFxr9cyL0pnOWT2aG-7" value="serve up documents" style="rounded=0;whiteSpace=wrap;html=1;fillColor=#fa6800;fontColor=#000000;strokeColor=#C73500;" parent="1" vertex="1">
          <mxGeometry x="-640" y="770" width="90" height="40" as="geometry" />
        </mxCell>
        <mxCell id="3nuBFxr9cyL0pnOWT2aG-17" value="postman login" style="rounded=0;whiteSpace=wrap;html=1;fillColor=#1ba1e2;fontColor=#ffffff;strokeColor=#006EAF;" parent="1" vertex="1">
          <mxGeometry x="-534" y="150" width="90" height="40" as="geometry" />
        </mxCell>
        <mxCell id="3nuBFxr9cyL0pnOWT2aG-10" value="define postman api" style="rounded=0;whiteSpace=wrap;html=1;fillColor=#1ba1e2;fontColor=#ffffff;strokeColor=#006EAF;" parent="1" vertex="1">
          <mxGeometry x="-406" y="150" width="90" height="40" as="geometry" />
        </mxCell>
        <mxCell id="3nuBFxr9cyL0pnOWT2aG-20" value="build documents" style="rounded=0;whiteSpace=wrap;html=1;fillColor=#fa6800;fontColor=#000000;strokeColor=#C73500;" parent="1" vertex="1">
          <mxGeometry x="-790" y="770" width="90" height="40" as="geometry" />
        </mxCell>
        <mxCell id="3nuBFxr9cyL0pnOWT2aG-14" value="End" style="rounded=1;whiteSpace=wrap;html=1;arcSize=50;fillColor=#e51400;fontColor=#ffffff;strokeColor=#B20000;" parent="1" vertex="1">
          <mxGeometry x="-280" y="770" width="90" height="40" as="geometry" />
        </mxCell>
        <mxCell id="soAuHpVcPObN9e2wOpiU-4" value="postman collection upload" style="rounded=0;whiteSpace=wrap;html=1;fillColor=#1ba1e2;fontColor=#ffffff;strokeColor=#006EAF;" vertex="1" parent="1">
          <mxGeometry x="-800" y="350.0000000000001" width="90" height="40" as="geometry" />
        </mxCell>
        <mxCell id="soAuHpVcPObN9e2wOpiU-5" value="postman collection generate" style="rounded=0;whiteSpace=wrap;html=1;fillColor=#fa6800;fontColor=#000000;strokeColor=#C73500;" vertex="1" parent="1">
          <mxGeometry x="-932" y="350.0000000000001" width="90" height="40" as="geometry" />
        </mxCell>
        <mxCell id="soAuHpVcPObN9e2wOpiU-6" value="lint" style="rounded=0;whiteSpace=wrap;html=1;fillColor=#fa6800;fontColor=#000000;strokeColor=#C73500;" vertex="1" parent="1">
          <mxGeometry x="-666" y="150" width="86" height="40" as="geometry" />
        </mxCell>
        <mxCell id="soAuHpVcPObN9e2wOpiU-8" value="Install&amp;nbsp;&lt;div&gt;Packages&lt;/div&gt;" style="rounded=0;whiteSpace=wrap;html=1;fillColor=#fa6800;fontColor=#000000;strokeColor=#C73500;" vertex="1" parent="1">
          <mxGeometry x="-904" y="150" width="90" height="40" as="geometry" />
        </mxCell>
        <mxCell id="soAuHpVcPObN9e2wOpiU-10" value="upload env" style="rounded=0;whiteSpace=wrap;html=1;fillColor=#1ba1e2;fontColor=#ffffff;strokeColor=#006EAF;" vertex="1" parent="1">
          <mxGeometry x="-670" y="650" width="90" height="40" as="geometry" />
        </mxCell>
        <mxCell id="soAuHpVcPObN9e2wOpiU-11" value="postman create env" style="rounded=0;whiteSpace=wrap;html=1;fillColor=#fa6800;fontColor=#000000;strokeColor=#C73500;" vertex="1" parent="1">
          <mxGeometry x="-800" y="650" width="90" height="40" as="geometry" />
        </mxCell>
        <mxCell id="soAuHpVcPObN9e2wOpiU-12" value="postman mock create" style="rounded=0;whiteSpace=wrap;html=1;fillColor=#1ba1e2;fontColor=#ffffff;strokeColor=#006EAF;" vertex="1" parent="1">
          <mxGeometry x="-943" y="650" width="90" height="40" as="geometry" />
        </mxCell>
        <mxCell id="soAuHpVcPObN9e2wOpiU-13" value="upload test collection to postman" style="rounded=0;whiteSpace=wrap;html=1;fillColor=#1ba1e2;strokeColor=#006EAF;fontColor=#ffffff;" vertex="1" parent="1">
          <mxGeometry x="-379" y="530.0000000000001" width="90" height="40" as="geometry" />
        </mxCell>
        <mxCell id="soAuHpVcPObN9e2wOpiU-14" value="add tests to postman collection" style="rounded=0;whiteSpace=wrap;html=1;fillColor=#fa6800;strokeColor=#C73500;fontColor=#000000;" vertex="1" parent="1">
          <mxGeometry x="-663" y="530.0000000000001" width="90" height="40" as="geometry" />
        </mxCell>
        <mxCell id="soAuHpVcPObN9e2wOpiU-15" value="auto fix postman collection" style="rounded=0;whiteSpace=wrap;html=1;fillColor=#fa6800;strokeColor=#C73500;fontColor=#000000;" vertex="1" parent="1">
          <mxGeometry x="-540" y="530.0000000000001" width="90" height="40" as="geometry" />
        </mxCell>
        <mxCell id="soAuHpVcPObN9e2wOpiU-16" value="generate openapi" style="rounded=0;whiteSpace=wrap;html=1;fillColor=#fa6800;fontColor=#000000;strokeColor=#C73500;" vertex="1" parent="1">
          <mxGeometry x="-784" y="150" width="90" height="40" as="geometry" />
        </mxCell>
        <mxCell id="soAuHpVcPObN9e2wOpiU-17" value="import openapi spec" style="rounded=0;whiteSpace=wrap;html=1;fillColor=#1ba1e2;fontColor=#ffffff;strokeColor=#006EAF;" vertex="1" parent="1">
          <mxGeometry x="-284" y="150" width="90" height="40" as="geometry" />
        </mxCell>
        <mxCell id="soAuHpVcPObN9e2wOpiU-18" value="api set version" style="rounded=0;whiteSpace=wrap;html=1;fillColor=#1ba1e2;fontColor=#ffffff;strokeColor=#006EAF;" vertex="1" parent="1">
          <mxGeometry x="-156" y="150" width="90" height="40" as="geometry" />
        </mxCell>
        <mxCell id="soAuHpVcPObN9e2wOpiU-101" style="edgeStyle=orthogonalEdgeStyle;rounded=0;orthogonalLoop=1;jettySize=auto;html=1;exitX=1;exitY=0.5;exitDx=0;exitDy=0;entryX=0;entryY=0.5;entryDx=0;entryDy=0;" edge="1" parent="1" source="soAuHpVcPObN9e2wOpiU-19" target="soAuHpVcPObN9e2wOpiU-14">
          <mxGeometry relative="1" as="geometry" />
        </mxCell>
        <mxCell id="soAuHpVcPObN9e2wOpiU-19" value="add test data to postman collection" style="rounded=0;whiteSpace=wrap;html=1;fillColor=#fa6800;strokeColor=#C73500;fontColor=#000000;" vertex="1" parent="1">
          <mxGeometry x="-800" y="530.0000000000001" width="90" height="40" as="geometry" />
        </mxCell>
        <mxCell id="soAuHpVcPObN9e2wOpiU-125" style="edgeStyle=orthogonalEdgeStyle;rounded=0;orthogonalLoop=1;jettySize=auto;html=1;exitX=1;exitY=0.5;exitDx=0;exitDy=0;entryX=0;entryY=0.5;entryDx=0;entryDy=0;" edge="1" parent="1" source="soAuHpVcPObN9e2wOpiU-23" target="3nuBFxr9cyL0pnOWT2aG-20">
          <mxGeometry relative="1" as="geometry" />
        </mxCell>
        <mxCell id="soAuHpVcPObN9e2wOpiU-23" value="test against mock server" style="rounded=0;whiteSpace=wrap;html=1;fillColor=#1ba1e2;fontColor=#ffffff;strokeColor=#006EAF;" vertex="1" parent="1">
          <mxGeometry x="-944" y="770" width="90" height="40" as="geometry" />
        </mxCell>
        <mxCell id="soAuHpVcPObN9e2wOpiU-24" value="start postman mock server" style="rounded=0;whiteSpace=wrap;html=1;fillColor=#fa6800;fontColor=#000000;strokeColor=#C73500;" vertex="1" parent="1">
          <mxGeometry x="-461" y="790" width="90" height="40" as="geometry" />
        </mxCell>
        <mxCell id="soAuHpVcPObN9e2wOpiU-26" value="update mock workspace" style="rounded=0;whiteSpace=wrap;html=1;fillColor=#1ba1e2;fontColor=#ffffff;strokeColor=#006EAF;" vertex="1" parent="1">
          <mxGeometry x="-370" y="650" width="90" height="40" as="geometry" />
        </mxCell>
        <mxCell id="soAuHpVcPObN9e2wOpiU-33" value="link collection to api" style="rounded=0;whiteSpace=wrap;html=1;fillColor=#1ba1e2;fontColor=#ffffff;strokeColor=#006EAF;" vertex="1" parent="1">
          <mxGeometry x="-670" y="350" width="90" height="40" as="geometry" />
        </mxCell>
        <mxCell id="soAuHpVcPObN9e2wOpiU-36" value="start pris&lt;span style=&quot;color: rgba(0, 0, 0, 0); font-family: monospace; font-size: 0px; text-align: start; text-wrap: nowrap;&quot;&gt;%3CmxGraphModel%3E%3Croot%3E%3CmxCell%20id%3D%220%22%2F%3E%3CmxCell%20id%3D%221%22%20parent%3D%220%22%2F%3E%3CmxCell%20id%3D%222%22%20value%3D%22build%20documents%22%20style%3D%22rounded%3D0%3BwhiteSpace%3Dwrap%3Bhtml%3D1%3B%22%20vertex%3D%221%22%20parent%3D%221%22%3E%3CmxGeometry%20x%3D%22-1078%22%20y%3D%22520%22%20width%3D%2290%22%20height%3D%2240%22%20as%3D%22geometry%22%2F%3E%3C%2FmxCell%3E%3C%2Froot%3E%3C%2FmxGraphModel%3E&lt;/span&gt;&lt;span style=&quot;color: rgba(0, 0, 0, 0); font-family: monospace; font-size: 0px; text-align: start; text-wrap: nowrap;&quot;&gt;%3CmxGraphModel%3E%3Croot%3E%3CmxCell%20id%3D%220%22%2F%3E%3CmxCell%20id%3D%221%22%20parent%3D%220%22%2F%3E%3CmxCell%20id%3D%222%22%20value%3D%22build%20documents%22%20style%3D%22rounded%3D0%3BwhiteSpace%3Dwrap%3Bhtml%3D1%3B%22%20vertex%3D%221%22%20parent%3D%221%22%3E%3CmxGeometry%20x%3D%22-1078%22%20y%3D%22520%22%20width%3D%2290%22%20height%3D%2240%22%20as%3D%22geometry%22%2F%3E%3C%2FmxCell%3E%3C%2Froot%3E%3C%2FmxGraphModel%3E&lt;/span&gt;m mock server" style="rounded=0;whiteSpace=wrap;html=1;fillColor=#fa6800;fontColor=#000000;strokeColor=#C73500;" vertex="1" parent="1">
          <mxGeometry x="-461" y="730" width="90" height="40" as="geometry" />
        </mxCell>
        <mxCell id="soAuHpVcPObN9e2wOpiU-37" value="update mock server env" style="rounded=0;whiteSpace=wrap;html=1;fillColor=#1ba1e2;fontColor=#ffffff;strokeColor=#006EAF;" vertex="1" parent="1">
          <mxGeometry x="-530" y="650" width="90" height="40" as="geometry" />
        </mxCell>
        <mxCell id="soAuHpVcPObN9e2wOpiU-47" value="postman collection" style="shape=document;whiteSpace=wrap;html=1;boundedLbl=1;fillColor=#6a00ff;fontColor=#ffffff;strokeColor=#3700CC;" vertex="1" parent="1">
          <mxGeometry x="-929" y="430" width="86" height="40" as="geometry" />
        </mxCell>
        <mxCell id="soAuHpVcPObN9e2wOpiU-48" value="data dictionary" style="shape=document;whiteSpace=wrap;html=1;boundedLbl=1;fillColor=#6a00ff;fontColor=#ffffff;strokeColor=#3700CC;" vertex="1" parent="1">
          <mxGeometry x="-790" y="40" width="90" height="60" as="geometry" />
        </mxCell>
        <mxCell id="soAuHpVcPObN9e2wOpiU-53" value="openapi spec" style="shape=document;whiteSpace=wrap;html=1;boundedLbl=1;fillColor=#6a00ff;fontColor=#ffffff;strokeColor=#3700CC;" vertex="1" parent="1">
          <mxGeometry x="-720" y="240" width="90" height="60" as="geometry" />
        </mxCell>
        <mxCell id="soAuHpVcPObN9e2wOpiU-56" value="" style="endArrow=classic;html=1;rounded=0;exitX=0.5;exitY=1;exitDx=0;exitDy=0;fillColor=#d80073;strokeColor=#A50040;entryX=0;entryY=0.25;entryDx=0;entryDy=0;" edge="1" parent="1" source="soAuHpVcPObN9e2wOpiU-16" target="soAuHpVcPObN9e2wOpiU-53">
          <mxGeometry width="50" height="50" relative="1" as="geometry">
            <mxPoint x="-900" y="320" as="sourcePoint" />
            <mxPoint x="-670" y="260" as="targetPoint" />
          </mxGeometry>
        </mxCell>
        <mxCell id="soAuHpVcPObN9e2wOpiU-57" value="" style="endArrow=classic;html=1;rounded=0;entryX=0.5;entryY=1;entryDx=0;entryDy=0;fillColor=#d80073;strokeColor=#A50040;" edge="1" parent="1" target="soAuHpVcPObN9e2wOpiU-6">
          <mxGeometry width="50" height="50" relative="1" as="geometry">
            <mxPoint x="-630" y="240" as="sourcePoint" />
            <mxPoint x="-640" y="180" as="targetPoint" />
          </mxGeometry>
        </mxCell>
        <mxCell id="soAuHpVcPObN9e2wOpiU-60" value="" style="endArrow=classic;html=1;rounded=0;entryX=0.25;entryY=1;entryDx=0;entryDy=0;fillColor=#d80073;strokeColor=#A50040;exitX=1;exitY=0.25;exitDx=0;exitDy=0;" edge="1" parent="1" source="soAuHpVcPObN9e2wOpiU-53" target="soAuHpVcPObN9e2wOpiU-17">
          <mxGeometry relative="1" as="geometry">
            <mxPoint x="-580" y="260" as="sourcePoint" />
            <mxPoint x="-480" y="260" as="targetPoint" />
          </mxGeometry>
        </mxCell>
        <mxCell id="soAuHpVcPObN9e2wOpiU-66" value="" style="endArrow=classic;html=1;rounded=0;entryX=0.5;entryY=0;entryDx=0;entryDy=0;fillColor=#d80073;strokeColor=#A50040;" edge="1" parent="1" target="soAuHpVcPObN9e2wOpiU-16">
          <mxGeometry width="50" height="50" relative="1" as="geometry">
            <mxPoint x="-760" y="100" as="sourcePoint" />
            <mxPoint x="-710" y="50" as="targetPoint" />
          </mxGeometry>
        </mxCell>
        <mxCell id="soAuHpVcPObN9e2wOpiU-69" value="" style="endArrow=classic;html=1;rounded=0;entryX=0;entryY=0.5;entryDx=0;entryDy=0;" edge="1" parent="1" target="soAuHpVcPObN9e2wOpiU-16">
          <mxGeometry width="50" height="50" relative="1" as="geometry">
            <mxPoint x="-810" y="170" as="sourcePoint" />
            <mxPoint x="-760" y="130" as="targetPoint" />
          </mxGeometry>
        </mxCell>
        <mxCell id="soAuHpVcPObN9e2wOpiU-71" value="" style="endArrow=classic;html=1;rounded=0;entryX=0;entryY=0.5;entryDx=0;entryDy=0;" edge="1" parent="1" target="soAuHpVcPObN9e2wOpiU-6">
          <mxGeometry width="50" height="50" relative="1" as="geometry">
            <mxPoint x="-690" y="170" as="sourcePoint" />
            <mxPoint x="-650" y="130" as="targetPoint" />
            <Array as="points">
              <mxPoint x="-690" y="170" />
            </Array>
          </mxGeometry>
        </mxCell>
        <mxCell id="soAuHpVcPObN9e2wOpiU-73" value="" style="endArrow=classic;html=1;rounded=0;entryX=0;entryY=0.5;entryDx=0;entryDy=0;" edge="1" parent="1" target="3nuBFxr9cyL0pnOWT2aG-17">
          <mxGeometry width="50" height="50" relative="1" as="geometry">
            <mxPoint x="-580" y="170" as="sourcePoint" />
            <mxPoint x="-530" y="130" as="targetPoint" />
          </mxGeometry>
        </mxCell>
        <mxCell id="soAuHpVcPObN9e2wOpiU-74" value="" style="endArrow=classic;html=1;rounded=0;entryX=0;entryY=0.5;entryDx=0;entryDy=0;" edge="1" parent="1" target="3nuBFxr9cyL0pnOWT2aG-10">
          <mxGeometry width="50" height="50" relative="1" as="geometry">
            <mxPoint x="-440" y="170" as="sourcePoint" />
            <mxPoint x="-390" y="130" as="targetPoint" />
          </mxGeometry>
        </mxCell>
        <mxCell id="soAuHpVcPObN9e2wOpiU-75" value="" style="endArrow=classic;html=1;rounded=0;entryX=0;entryY=0.5;entryDx=0;entryDy=0;" edge="1" parent="1" source="3nuBFxr9cyL0pnOWT2aG-10" target="soAuHpVcPObN9e2wOpiU-17">
          <mxGeometry width="50" height="50" relative="1" as="geometry">
            <mxPoint x="-310" y="170" as="sourcePoint" />
            <mxPoint x="-270" y="130" as="targetPoint" />
          </mxGeometry>
        </mxCell>
        <mxCell id="soAuHpVcPObN9e2wOpiU-77" value="" style="endArrow=classic;html=1;rounded=0;entryX=0;entryY=0.5;entryDx=0;entryDy=0;" edge="1" parent="1" target="soAuHpVcPObN9e2wOpiU-18">
          <mxGeometry width="50" height="50" relative="1" as="geometry">
            <mxPoint x="-190" y="170" as="sourcePoint" />
            <mxPoint x="-150" y="120" as="targetPoint" />
          </mxGeometry>
        </mxCell>
        <mxCell id="soAuHpVcPObN9e2wOpiU-78" value="A" style="ellipse;whiteSpace=wrap;html=1;aspect=fixed;fillColor=#60a917;fontColor=#ffffff;strokeColor=#2D7600;" vertex="1" parent="1">
          <mxGeometry x="-140" y="230" width="40" height="40" as="geometry" />
        </mxCell>
        <mxCell id="soAuHpVcPObN9e2wOpiU-79" value="A" style="ellipse;whiteSpace=wrap;html=1;aspect=fixed;fillColor=#60a917;fontColor=#ffffff;strokeColor=#2D7600;" vertex="1" parent="1">
          <mxGeometry x="-1030" y="350" width="40" height="40" as="geometry" />
        </mxCell>
        <mxCell id="soAuHpVcPObN9e2wOpiU-81" value="" style="endArrow=classic;html=1;rounded=0;entryX=0.5;entryY=0;entryDx=0;entryDy=0;" edge="1" parent="1" target="soAuHpVcPObN9e2wOpiU-78">
          <mxGeometry width="50" height="50" relative="1" as="geometry">
            <mxPoint x="-120" y="190" as="sourcePoint" />
            <mxPoint x="-70" y="140" as="targetPoint" />
          </mxGeometry>
        </mxCell>
        <mxCell id="soAuHpVcPObN9e2wOpiU-84" value="" style="endArrow=classic;html=1;rounded=0;entryX=0;entryY=0.5;entryDx=0;entryDy=0;" edge="1" parent="1" target="soAuHpVcPObN9e2wOpiU-5">
          <mxGeometry width="50" height="50" relative="1" as="geometry">
            <mxPoint x="-990" y="369.6" as="sourcePoint" />
            <mxPoint x="-940" y="369.6" as="targetPoint" />
          </mxGeometry>
        </mxCell>
        <mxCell id="soAuHpVcPObN9e2wOpiU-90" value="lint results" style="shape=document;whiteSpace=wrap;html=1;boundedLbl=1;fillColor=#6a00ff;fontColor=#ffffff;strokeColor=#3700CC;" vertex="1" parent="1">
          <mxGeometry x="-666" y="40" width="90" height="60" as="geometry" />
        </mxCell>
        <mxCell id="soAuHpVcPObN9e2wOpiU-91" value="" style="endArrow=classic;html=1;rounded=0;entryX=0.576;entryY=0.811;entryDx=0;entryDy=0;entryPerimeter=0;fillColor=#d80073;strokeColor=#A50040;" edge="1" parent="1" target="soAuHpVcPObN9e2wOpiU-90">
          <mxGeometry width="50" height="50" relative="1" as="geometry">
            <mxPoint x="-620" y="150" as="sourcePoint" />
            <mxPoint x="-570" y="100" as="targetPoint" />
          </mxGeometry>
        </mxCell>
        <mxCell id="soAuHpVcPObN9e2wOpiU-93" value="generate collection for testing" style="rounded=0;whiteSpace=wrap;html=1;fillColor=#fa6800;strokeColor=#C73500;fontColor=#000000;" vertex="1" parent="1">
          <mxGeometry x="-944" y="530.0000000000001" width="90" height="40" as="geometry" />
        </mxCell>
        <mxCell id="soAuHpVcPObN9e2wOpiU-95" value="" style="endArrow=classic;html=1;rounded=0;entryX=0;entryY=0.5;entryDx=0;entryDy=0;exitX=1;exitY=0.5;exitDx=0;exitDy=0;" edge="1" parent="1" source="soAuHpVcPObN9e2wOpiU-5" target="soAuHpVcPObN9e2wOpiU-4">
          <mxGeometry width="50" height="50" relative="1" as="geometry">
            <mxPoint x="-836" y="370" as="sourcePoint" />
            <mxPoint x="-796" y="320" as="targetPoint" />
          </mxGeometry>
        </mxCell>
        <mxCell id="soAuHpVcPObN9e2wOpiU-96" value="" style="endArrow=classic;html=1;rounded=0;entryX=0;entryY=0.5;entryDx=0;entryDy=0;" edge="1" parent="1" target="soAuHpVcPObN9e2wOpiU-33">
          <mxGeometry width="50" height="50" relative="1" as="geometry">
            <mxPoint x="-710" y="370" as="sourcePoint" />
            <mxPoint x="-666" y="320" as="targetPoint" />
          </mxGeometry>
        </mxCell>
        <mxCell id="soAuHpVcPObN9e2wOpiU-97" value="" style="endArrow=classic;html=1;rounded=0;entryX=0;entryY=0.5;entryDx=0;entryDy=0;exitX=1;exitY=0.5;exitDx=0;exitDy=0;" edge="1" parent="1" source="soAuHpVcPObN9e2wOpiU-12" target="soAuHpVcPObN9e2wOpiU-11">
          <mxGeometry width="50" height="50" relative="1" as="geometry">
            <mxPoint x="-836" y="660" as="sourcePoint" />
            <mxPoint x="-786" y="610" as="targetPoint" />
          </mxGeometry>
        </mxCell>
        <mxCell id="soAuHpVcPObN9e2wOpiU-100" value="" style="endArrow=classic;html=1;rounded=0;exitX=1;exitY=0.5;exitDx=0;exitDy=0;" edge="1" parent="1" source="soAuHpVcPObN9e2wOpiU-15">
          <mxGeometry width="50" height="50" relative="1" as="geometry">
            <mxPoint x="-435" y="550" as="sourcePoint" />
            <mxPoint x="-379" y="550" as="targetPoint" />
          </mxGeometry>
        </mxCell>
        <mxCell id="soAuHpVcPObN9e2wOpiU-104" value="" style="endArrow=classic;html=1;rounded=0;exitX=1;exitY=0.5;exitDx=0;exitDy=0;entryX=0;entryY=0.5;entryDx=0;entryDy=0;" edge="1" parent="1" source="soAuHpVcPObN9e2wOpiU-14" target="soAuHpVcPObN9e2wOpiU-15">
          <mxGeometry width="50" height="50" relative="1" as="geometry">
            <mxPoint x="-569" y="550" as="sourcePoint" />
            <mxPoint x="-529" y="550" as="targetPoint" />
          </mxGeometry>
        </mxCell>
        <mxCell id="soAuHpVcPObN9e2wOpiU-105" value="" style="endArrow=classic;html=1;rounded=0;entryX=0;entryY=0.5;entryDx=0;entryDy=0;exitX=1;exitY=0.5;exitDx=0;exitDy=0;" edge="1" parent="1" source="soAuHpVcPObN9e2wOpiU-11" target="soAuHpVcPObN9e2wOpiU-10">
          <mxGeometry width="50" height="50" relative="1" as="geometry">
            <mxPoint x="-706" y="670" as="sourcePoint" />
            <mxPoint x="-666" y="620" as="targetPoint" />
          </mxGeometry>
        </mxCell>
        <mxCell id="soAuHpVcPObN9e2wOpiU-106" value="" style="endArrow=classic;html=1;rounded=0;entryX=0;entryY=0.5;entryDx=0;entryDy=0;exitX=1;exitY=0.5;exitDx=0;exitDy=0;" edge="1" parent="1" source="soAuHpVcPObN9e2wOpiU-10" target="soAuHpVcPObN9e2wOpiU-37">
          <mxGeometry width="50" height="50" relative="1" as="geometry">
            <mxPoint x="-586" y="680" as="sourcePoint" />
            <mxPoint x="-536" y="630" as="targetPoint" />
          </mxGeometry>
        </mxCell>
        <mxCell id="soAuHpVcPObN9e2wOpiU-107" value="" style="endArrow=classic;html=1;rounded=0;exitX=1;exitY=0.5;exitDx=0;exitDy=0;entryX=0;entryY=0.5;entryDx=0;entryDy=0;" edge="1" parent="1" source="soAuHpVcPObN9e2wOpiU-37" target="soAuHpVcPObN9e2wOpiU-26">
          <mxGeometry width="50" height="50" relative="1" as="geometry">
            <mxPoint x="-446" y="680" as="sourcePoint" />
            <mxPoint x="-376" y="680" as="targetPoint" />
          </mxGeometry>
        </mxCell>
        <mxCell id="soAuHpVcPObN9e2wOpiU-110" value="C" style="ellipse;whiteSpace=wrap;html=1;aspect=fixed;fillColor=#60a917;fontColor=#ffffff;strokeColor=#2D7600;" vertex="1" parent="1">
          <mxGeometry x="-249" y="530" width="40" height="40" as="geometry" />
        </mxCell>
        <mxCell id="soAuHpVcPObN9e2wOpiU-111" value="B" style="ellipse;whiteSpace=wrap;html=1;aspect=fixed;fillColor=#60a917;fontColor=#ffffff;strokeColor=#2D7600;" vertex="1" parent="1">
          <mxGeometry x="-1033" y="530" width="40" height="40" as="geometry" />
        </mxCell>
        <mxCell id="soAuHpVcPObN9e2wOpiU-112" value="B" style="ellipse;whiteSpace=wrap;html=1;aspect=fixed;fillColor=#60a917;fontColor=#ffffff;strokeColor=#2D7600;" vertex="1" parent="1">
          <mxGeometry x="-530" y="350" width="40" height="40" as="geometry" />
        </mxCell>
        <mxCell id="soAuHpVcPObN9e2wOpiU-166" value="" style="edgeStyle=orthogonalEdgeStyle;rounded=0;orthogonalLoop=1;jettySize=auto;html=1;" edge="1" parent="1" source="soAuHpVcPObN9e2wOpiU-114" target="soAuHpVcPObN9e2wOpiU-23">
          <mxGeometry relative="1" as="geometry" />
        </mxCell>
        <mxCell id="soAuHpVcPObN9e2wOpiU-114" value="D" style="ellipse;whiteSpace=wrap;html=1;aspect=fixed;fillColor=#60a917;fontColor=#ffffff;strokeColor=#2D7600;" vertex="1" parent="1">
          <mxGeometry x="-1034" y="770" width="40" height="40" as="geometry" />
        </mxCell>
        <mxCell id="soAuHpVcPObN9e2wOpiU-115" value="D" style="ellipse;whiteSpace=wrap;html=1;aspect=fixed;fillColor=#60a917;fontColor=#ffffff;strokeColor=#2D7600;" vertex="1" parent="1">
          <mxGeometry x="-246" y="650" width="40" height="40" as="geometry" />
        </mxCell>
        <mxCell id="soAuHpVcPObN9e2wOpiU-116" value="C" style="ellipse;whiteSpace=wrap;html=1;aspect=fixed;fillColor=#60a917;fontColor=#ffffff;strokeColor=#2D7600;" vertex="1" parent="1">
          <mxGeometry x="-1034" y="650" width="40" height="40" as="geometry" />
        </mxCell>
        <mxCell id="soAuHpVcPObN9e2wOpiU-119" value="" style="endArrow=classic;html=1;rounded=0;entryX=0.5;entryY=0;entryDx=0;entryDy=0;exitX=0.5;exitY=1;exitDx=0;exitDy=0;" edge="1" parent="1" source="soAuHpVcPObN9e2wOpiU-5" target="soAuHpVcPObN9e2wOpiU-47">
          <mxGeometry width="50" height="50" relative="1" as="geometry">
            <mxPoint x="-900" y="450" as="sourcePoint" />
            <mxPoint x="-850" y="400" as="targetPoint" />
          </mxGeometry>
        </mxCell>
        <mxCell id="soAuHpVcPObN9e2wOpiU-121" value="" style="endArrow=classic;html=1;rounded=0;entryX=0.5;entryY=1;entryDx=0;entryDy=0;exitX=1;exitY=0.5;exitDx=0;exitDy=0;" edge="1" parent="1" source="soAuHpVcPObN9e2wOpiU-47" target="soAuHpVcPObN9e2wOpiU-4">
          <mxGeometry width="50" height="50" relative="1" as="geometry">
            <mxPoint x="-850" y="500" as="sourcePoint" />
            <mxPoint x="-800" y="450" as="targetPoint" />
          </mxGeometry>
        </mxCell>
        <mxCell id="soAuHpVcPObN9e2wOpiU-123" value="" style="endArrow=classic;html=1;rounded=0;exitX=0;exitY=0.5;exitDx=0;exitDy=0;entryX=0.653;entryY=0.029;entryDx=0;entryDy=0;entryPerimeter=0;" edge="1" parent="1" source="soAuHpVcPObN9e2wOpiU-53" target="soAuHpVcPObN9e2wOpiU-5">
          <mxGeometry width="50" height="50" relative="1" as="geometry">
            <mxPoint x="-750" y="340" as="sourcePoint" />
            <mxPoint x="-700" y="290" as="targetPoint" />
          </mxGeometry>
        </mxCell>
        <mxCell id="soAuHpVcPObN9e2wOpiU-126" value="postman collection for Testing" style="shape=document;whiteSpace=wrap;html=1;boundedLbl=1;fillColor=#6a00ff;fontColor=#ffffff;strokeColor=#3700CC;" vertex="1" parent="1">
          <mxGeometry x="-671" y="420" width="81" height="60" as="geometry" />
        </mxCell>
        <mxCell id="soAuHpVcPObN9e2wOpiU-128" value="" style="endArrow=classic;html=1;rounded=0;entryX=0;entryY=0.5;entryDx=0;entryDy=0;" edge="1" parent="1" target="soAuHpVcPObN9e2wOpiU-126">
          <mxGeometry width="50" height="50" relative="1" as="geometry">
            <mxPoint x="-870" y="530" as="sourcePoint" />
            <mxPoint x="-820" y="480" as="targetPoint" />
          </mxGeometry>
        </mxCell>
        <mxCell id="soAuHpVcPObN9e2wOpiU-130" value="" style="endArrow=classic;html=1;rounded=0;entryX=0.226;entryY=0.898;entryDx=0;entryDy=0;entryPerimeter=0;" edge="1" parent="1" target="soAuHpVcPObN9e2wOpiU-126">
          <mxGeometry width="50" height="50" relative="1" as="geometry">
            <mxPoint x="-730" y="530" as="sourcePoint" />
            <mxPoint x="-680" y="480" as="targetPoint" />
          </mxGeometry>
        </mxCell>
        <mxCell id="soAuHpVcPObN9e2wOpiU-132" value="" style="endArrow=classic;html=1;rounded=0;entryX=0.593;entryY=0.75;entryDx=0;entryDy=0;entryPerimeter=0;" edge="1" parent="1" target="soAuHpVcPObN9e2wOpiU-126">
          <mxGeometry width="50" height="50" relative="1" as="geometry">
            <mxPoint x="-620" y="530" as="sourcePoint" />
            <mxPoint x="-570" y="480" as="targetPoint" />
          </mxGeometry>
        </mxCell>
        <mxCell id="soAuHpVcPObN9e2wOpiU-134" value="" style="endArrow=classic;html=1;rounded=0;entryX=1;entryY=0.25;entryDx=0;entryDy=0;exitX=0.5;exitY=0;exitDx=0;exitDy=0;" edge="1" parent="1" source="soAuHpVcPObN9e2wOpiU-15" target="soAuHpVcPObN9e2wOpiU-126">
          <mxGeometry width="50" height="50" relative="1" as="geometry">
            <mxPoint x="-490" y="580" as="sourcePoint" />
            <mxPoint x="-440" y="530" as="targetPoint" />
          </mxGeometry>
        </mxCell>
        <mxCell id="soAuHpVcPObN9e2wOpiU-136" value="env file (json)" style="shape=document;whiteSpace=wrap;html=1;boundedLbl=1;fillColor=#6a00ff;fontColor=#ffffff;strokeColor=#3700CC;" vertex="1" parent="1">
          <mxGeometry x="-800" y="590" width="86" height="40" as="geometry" />
        </mxCell>
        <mxCell id="soAuHpVcPObN9e2wOpiU-138" value="" style="endArrow=classic;html=1;rounded=0;entryX=0.465;entryY=0.886;entryDx=0;entryDy=0;entryPerimeter=0;" edge="1" parent="1" target="soAuHpVcPObN9e2wOpiU-136">
          <mxGeometry width="50" height="50" relative="1" as="geometry">
            <mxPoint x="-759" y="650" as="sourcePoint" />
            <mxPoint x="-709" y="600" as="targetPoint" />
          </mxGeometry>
        </mxCell>
        <mxCell id="soAuHpVcPObN9e2wOpiU-141" value="" style="endArrow=classic;html=1;rounded=0;exitX=1;exitY=0.5;exitDx=0;exitDy=0;" edge="1" parent="1" source="soAuHpVcPObN9e2wOpiU-93" target="soAuHpVcPObN9e2wOpiU-19">
          <mxGeometry width="50" height="50" relative="1" as="geometry">
            <mxPoint x="-850" y="550" as="sourcePoint" />
            <mxPoint x="-790" y="550" as="targetPoint" />
          </mxGeometry>
        </mxCell>
        <mxCell id="soAuHpVcPObN9e2wOpiU-144" value="" style="endArrow=classic;html=1;rounded=0;entryX=0.5;entryY=0;entryDx=0;entryDy=0;exitX=1;exitY=0.25;exitDx=0;exitDy=0;" edge="1" parent="1" source="soAuHpVcPObN9e2wOpiU-136" target="soAuHpVcPObN9e2wOpiU-10">
          <mxGeometry width="50" height="50" relative="1" as="geometry">
            <mxPoint x="-719" y="600" as="sourcePoint" />
            <mxPoint x="-669" y="550" as="targetPoint" />
          </mxGeometry>
        </mxCell>
        <mxCell id="soAuHpVcPObN9e2wOpiU-147" value="" style="endArrow=classic;html=1;rounded=0;entryX=0;entryY=0.5;entryDx=0;entryDy=0;exitX=1;exitY=0.5;exitDx=0;exitDy=0;" edge="1" parent="1" source="3nuBFxr9cyL0pnOWT2aG-20" target="3nuBFxr9cyL0pnOWT2aG-7">
          <mxGeometry width="50" height="50" relative="1" as="geometry">
            <mxPoint x="-700" y="800" as="sourcePoint" />
            <mxPoint x="-650" y="750" as="targetPoint" />
          </mxGeometry>
        </mxCell>
        <mxCell id="soAuHpVcPObN9e2wOpiU-149" value="api documents" style="shape=document;whiteSpace=wrap;html=1;boundedLbl=1;fillColor=#6a00ff;fontColor=#ffffff;strokeColor=#3700CC;" vertex="1" parent="1">
          <mxGeometry x="-790" y="710" width="86" height="40" as="geometry" />
        </mxCell>
        <mxCell id="soAuHpVcPObN9e2wOpiU-150" value="" style="endArrow=classic;html=1;rounded=0;entryX=0.497;entryY=0.802;entryDx=0;entryDy=0;entryPerimeter=0;" edge="1" parent="1" target="soAuHpVcPObN9e2wOpiU-149">
          <mxGeometry width="50" height="50" relative="1" as="geometry">
            <mxPoint x="-750" y="770" as="sourcePoint" />
            <mxPoint x="-700" y="720" as="targetPoint" />
          </mxGeometry>
        </mxCell>
        <mxCell id="soAuHpVcPObN9e2wOpiU-151" value="" style="endArrow=classic;html=1;rounded=0;entryX=0.417;entryY=-0.031;entryDx=0;entryDy=0;entryPerimeter=0;exitX=1;exitY=0.25;exitDx=0;exitDy=0;" edge="1" parent="1" source="soAuHpVcPObN9e2wOpiU-149" target="3nuBFxr9cyL0pnOWT2aG-7">
          <mxGeometry width="50" height="50" relative="1" as="geometry">
            <mxPoint x="-700" y="730" as="sourcePoint" />
            <mxPoint x="-660" y="680" as="targetPoint" />
          </mxGeometry>
        </mxCell>
        <mxCell id="soAuHpVcPObN9e2wOpiU-152" value="" style="endArrow=classic;html=1;rounded=0;entryX=0;entryY=0.5;entryDx=0;entryDy=0;" edge="1" parent="1" target="soAuHpVcPObN9e2wOpiU-36">
          <mxGeometry width="50" height="50" relative="1" as="geometry">
            <mxPoint x="-550" y="790" as="sourcePoint" />
            <mxPoint x="-500" y="740" as="targetPoint" />
          </mxGeometry>
        </mxCell>
        <mxCell id="soAuHpVcPObN9e2wOpiU-153" value="" style="endArrow=classic;html=1;rounded=0;entryX=0;entryY=0.5;entryDx=0;entryDy=0;" edge="1" parent="1" target="soAuHpVcPObN9e2wOpiU-24">
          <mxGeometry width="50" height="50" relative="1" as="geometry">
            <mxPoint x="-550" y="800" as="sourcePoint" />
            <mxPoint x="-500" y="750" as="targetPoint" />
          </mxGeometry>
        </mxCell>
        <mxCell id="soAuHpVcPObN9e2wOpiU-154" value="" style="endArrow=classic;html=1;rounded=0;" edge="1" parent="1" target="3nuBFxr9cyL0pnOWT2aG-14">
          <mxGeometry width="50" height="50" relative="1" as="geometry">
            <mxPoint x="-370" y="750" as="sourcePoint" />
            <mxPoint x="-320" y="700" as="targetPoint" />
          </mxGeometry>
        </mxCell>
        <mxCell id="soAuHpVcPObN9e2wOpiU-155" value="" style="endArrow=classic;html=1;rounded=0;entryX=0;entryY=0.75;entryDx=0;entryDy=0;" edge="1" parent="1" target="3nuBFxr9cyL0pnOWT2aG-14">
          <mxGeometry width="50" height="50" relative="1" as="geometry">
            <mxPoint x="-370" y="820" as="sourcePoint" />
            <mxPoint x="-320" y="770" as="targetPoint" />
          </mxGeometry>
        </mxCell>
        <mxCell id="soAuHpVcPObN9e2wOpiU-156" value="web page" style="strokeWidth=2;html=1;shape=mxgraph.flowchart.display;whiteSpace=wrap;fillColor=#d80073;fontColor=#ffffff;strokeColor=#A50040;" vertex="1" parent="1">
          <mxGeometry x="-573" y="710" width="70" height="40" as="geometry" />
        </mxCell>
        <mxCell id="soAuHpVcPObN9e2wOpiU-157" value="" style="endArrow=classic;html=1;rounded=0;entryX=0.2;entryY=0.86;entryDx=0;entryDy=0;entryPerimeter=0;exitX=0.586;exitY=-0.019;exitDx=0;exitDy=0;exitPerimeter=0;" edge="1" parent="1" source="3nuBFxr9cyL0pnOWT2aG-7" target="soAuHpVcPObN9e2wOpiU-156">
          <mxGeometry width="50" height="50" relative="1" as="geometry">
            <mxPoint x="-590" y="780" as="sourcePoint" />
            <mxPoint x="-540" y="730" as="targetPoint" />
          </mxGeometry>
        </mxCell>
        <mxCell id="soAuHpVcPObN9e2wOpiU-158" value="" style="endArrow=classic;html=1;rounded=0;entryX=0;entryY=0.5;entryDx=0;entryDy=0;exitX=1;exitY=0.5;exitDx=0;exitDy=0;" edge="1" parent="1" source="soAuHpVcPObN9e2wOpiU-33" target="soAuHpVcPObN9e2wOpiU-112">
          <mxGeometry width="50" height="50" relative="1" as="geometry">
            <mxPoint x="-580" y="380" as="sourcePoint" />
            <mxPoint x="-530" y="330" as="targetPoint" />
          </mxGeometry>
        </mxCell>
        <mxCell id="soAuHpVcPObN9e2wOpiU-159" value="" style="endArrow=classic;html=1;rounded=0;entryX=0;entryY=0.5;entryDx=0;entryDy=0;exitX=1;exitY=0.5;exitDx=0;exitDy=0;" edge="1" parent="1" source="soAuHpVcPObN9e2wOpiU-111" target="soAuHpVcPObN9e2wOpiU-93">
          <mxGeometry width="50" height="50" relative="1" as="geometry">
            <mxPoint x="-990" y="550" as="sourcePoint" />
            <mxPoint x="-950" y="550" as="targetPoint" />
          </mxGeometry>
        </mxCell>
        <mxCell id="soAuHpVcPObN9e2wOpiU-160" value="" style="endArrow=classic;html=1;rounded=0;entryX=0;entryY=0.5;entryDx=0;entryDy=0;" edge="1" parent="1" target="soAuHpVcPObN9e2wOpiU-110">
          <mxGeometry width="50" height="50" relative="1" as="geometry">
            <mxPoint x="-290" y="550" as="sourcePoint" />
            <mxPoint x="-240" y="500" as="targetPoint" />
          </mxGeometry>
        </mxCell>
        <mxCell id="soAuHpVcPObN9e2wOpiU-161" value="" style="endArrow=classic;html=1;rounded=0;entryX=0;entryY=0.5;entryDx=0;entryDy=0;exitX=1;exitY=0.5;exitDx=0;exitDy=0;" edge="1" parent="1" source="soAuHpVcPObN9e2wOpiU-116" target="soAuHpVcPObN9e2wOpiU-12">
          <mxGeometry width="50" height="50" relative="1" as="geometry">
            <mxPoint x="-990" y="670" as="sourcePoint" />
            <mxPoint x="-950" y="620" as="targetPoint" />
          </mxGeometry>
        </mxCell>
        <mxCell id="soAuHpVcPObN9e2wOpiU-162" value="" style="endArrow=classic;html=1;rounded=0;entryX=0;entryY=0.5;entryDx=0;entryDy=0;" edge="1" parent="1" target="soAuHpVcPObN9e2wOpiU-115">
          <mxGeometry width="50" height="50" relative="1" as="geometry">
            <mxPoint x="-280" y="670" as="sourcePoint" />
            <mxPoint x="-230" y="620" as="targetPoint" />
          </mxGeometry>
        </mxCell>
        <mxCell id="soAuHpVcPObN9e2wOpiU-163" value="" style="endArrow=classic;html=1;rounded=0;entryX=0;entryY=0.5;entryDx=0;entryDy=0;" edge="1" parent="1" target="soAuHpVcPObN9e2wOpiU-23">
          <mxGeometry width="50" height="50" relative="1" as="geometry">
            <mxPoint x="-990" y="790" as="sourcePoint" />
            <mxPoint x="-940" y="740" as="targetPoint" />
          </mxGeometry>
        </mxCell>
      </root>
    </mxGraphModel>
  </diagram>
</mxfile>
